<?xml version="1.0" encoding="utf-8"?>
<!-- Generator: Adobe Illustrator 28.1.0, SVG Export Plug-In . SVG Version: 6.00 Build 0)  -->
<svg version="1.1" id="Ebene_1" xmlns="http://www.w3.org/2000/svg" xmlns:xlink="http://www.w3.org/1999/xlink" x="0px" y="0px"
	 viewBox="0 0 1920 1080" style="enable-background:new 0 0 1920 1080;" xml:space="preserve">
<style type="text/css">
	.st0{fill:#FFFFFF;}
	.st1{fill:none;stroke:#000000;stroke-width:3;stroke-miterlimit:10;}
	.st2{fill:#FFFFFF;stroke:#1D1D1B;stroke-width:0.9214;stroke-miterlimit:10;}
	.st3{fill:none;stroke:#1D1D1B;stroke-width:0.9214;stroke-miterlimit:10;}
	.st4{fill:none;stroke:#1D1D1B;stroke-width:0.8974;stroke-miterlimit:10;}
	.st5{fill:none;stroke:#1D1D1B;stroke-width:1.0138;stroke-miterlimit:10;}
	.st6{fill:none;}
	.st7{font-family:'Lato-Semibold';}
	.st8{font-size:36px;}
	.st9{fill:#FFFFFF;stroke:#000000;stroke-width:1.1278;stroke-miterlimit:10;}
	.st10{fill:#FFFFFF;stroke:#000000;stroke-width:1.1468;stroke-miterlimit:10;}
	.st11{fill:#FFFFFF;stroke:#000000;stroke-width:1.1965;stroke-miterlimit:10;}
	.st12{fill:#FFFFFF;stroke:#000000;stroke-width:1.2987;stroke-miterlimit:10;}
	.st13{fill:none;stroke:#000000;stroke-width:1.1965;stroke-miterlimit:10;}
	.st14{fill:#FFFFFF;stroke:#000000;stroke-miterlimit:10;}
	.st15{fill:#FFFFFF;stroke:#000000;stroke-width:0.6524;stroke-miterlimit:10;}
	.st16{fill:#FFFFFF;stroke:#000000;stroke-width:1.664;stroke-miterlimit:10;}
	.st17{fill:#FFFFFF;stroke:#000000;stroke-width:2.7202;stroke-miterlimit:10;}
	.st18{fill:none;stroke:#000000;stroke-miterlimit:10;}
	.st19{fill:#FFFFFF;stroke:#000000;stroke-width:7;stroke-miterlimit:10;}
	.st20{fill:#FFFFFF;stroke:#000000;stroke-width:7.8512;stroke-miterlimit:10;}
	.st21{fill:#FFFFFF;stroke:#000000;stroke-width:3.8467;stroke-miterlimit:10;}
</style>
<g>
	<rect x="504.6" y="312.6" class="st0" width="881.8" height="736.8"/>
	<path d="M1384.8,314.2v733.6H506.2V314.2H1384.8 M1388,311H503v740h885V311L1388,311z"/>
</g>
<g>
	<line class="st1" x1="586.5" y1="52.8" x2="1302.5" y2="52.8"/>
</g>
<line class="st1" x1="1306.5" y1="54.5" x2="1404.5" y2="299.5"/>
<line class="st1" x1="586.5" y1="64.5" x2="488.5" y2="309.5"/>
<g>
	<g>
		<rect x="757.1" y="92.2" class="st2" width="100.2" height="178.7"/>
		<line class="st3" x1="774.1" y1="91.9" x2="776.2" y2="270.7"/>
		<line class="st3" x1="793.8" y1="91.9" x2="795.8" y2="270.7"/>
		<line class="st3" x1="813.4" y1="91.9" x2="815.5" y2="270.7"/>
		<line class="st3" x1="833" y1="91.9" x2="835.1" y2="270.7"/>
	</g>
	<g>
		<rect x="1012.8" y="92.3" class="st2" width="100.2" height="178.7"/>
		<line class="st3" x1="1029.8" y1="92" x2="1031.9" y2="270.7"/>
		<line class="st3" x1="1049.4" y1="92" x2="1051.5" y2="270.7"/>
		<line class="st3" x1="1069.1" y1="92" x2="1071.1" y2="270.7"/>
		<line class="st3" x1="1088.7" y1="92" x2="1090.8" y2="270.7"/>
	</g>
	<g>
		<rect x="885" y="92.3" class="st2" width="100.2" height="178.7"/>
		<line class="st3" x1="902.1" y1="92" x2="904.1" y2="270.7"/>
		<line class="st3" x1="921.7" y1="92" x2="923.8" y2="270.7"/>
		<line class="st3" x1="941.3" y1="92" x2="943.4" y2="270.7"/>
		<line class="st3" x1="961" y1="92" x2="963" y2="270.7"/>
	</g>
	<rect x="986.5" y="105.8" class="st4" width="24.8" height="5"/>
	<rect x="858.5" y="106.6" class="st4" width="24.8" height="5"/>
	<rect x="858.8" y="183.8" class="st4" width="24.8" height="5"/>
	<rect x="986.9" y="183.8" class="st4" width="24.8" height="5"/>
</g>
<line class="st5" x1="0.5" y1="657.5" x2="502.5" y2="659.5"/>
<line class="st5" x1="283" y1="107.5" x2="785" y2="109.5"/>
<g>
	<rect x="539.6" y="327.6" class="st0" width="180.9" height="280.9"/>
	<path d="M719.9,328.1v279.7H540.1V328.1H719.9 M721,327H539v282h182V327L721,327z"/>
</g>
<line class="st5" x1="1388.5" y1="679.5" x2="1809.5" y2="679.5"/>
<g>
	<line class="st5" x1="446.5" y1="775.5" x2="217.5" y2="946.5"/>
	<line class="st5" x1="311.5" y1="800.5" x2="219.5" y2="861.5"/>
	<line class="st5" x1="278.5" y1="740.5" x2="219.5" y2="777.5"/>
	<line class="st5" x1="346.5" y1="728.5" x2="101.5" y2="881.5"/>
	<line class="st5" x1="223.5" y1="716.5" x2="31.5" y2="831.5"/>
	<line class="st5" x1="1472.5" y1="775.5" x2="1701.5" y2="946.5"/>
	<line class="st5" x1="1607.5" y1="800.5" x2="1699.5" y2="861.5"/>
	<line class="st5" x1="1640.5" y1="740.5" x2="1699.5" y2="777.5"/>
	<line class="st5" x1="1572.5" y1="728.5" x2="1817.5" y2="881.5"/>
	<line class="st5" x1="1695.5" y1="716.5" x2="1887.5" y2="831.5"/>
</g>
<g>
	<rect x="757.5" y="327.5" class="st0" width="592" height="329"/>
	<path d="M1349,328v328H758V328H1349 M1350,327H757v330h593V327L1350,327z"/>
</g>
<g>
	<rect x="537.6" y="691.6" class="st0" width="816.8" height="333.8"/>
	<path d="M1353.8,692.2v332.6H538.2V692.2H1353.8 M1355,691H537v335h818V691L1355,691z"/>
</g>
<rect x="193.5" y="39.9" class="st6" width="309.5" height="81.7"/>
<text transform="matrix(1 0 0 1 193.5146 66.54)"><tspan x="0" y="0" class="st7 st8">Solarkollektoren </tspan><tspan x="0" y="43.2" class="st7 st8">(1)</tspan></text>
<rect x="86.5" y="450.9" class="st6" width="309.5" height="81.7"/>
<text transform="matrix(1 0 0 1 86.5146 477.54)" class="st7 st8">Pumpe (2)</text>
<rect x="1416.5" y="926.9" class="st6" width="292.5" height="81.7"/>
<text transform="matrix(1 0 0 1 1453.4541 953.54)" class="st7 st8">Heizkessel (5)</text>
<rect x="1539.5" y="450.9" class="st6" width="292.5" height="81.7"/>
<text transform="matrix(1 0 0 1 1539.5146 477.54)" class="st7 st8">Heizkörper (6)</text>
<rect x="1586.5" y="289.9" class="st6" width="292.5" height="81.7"/>
<text transform="matrix(1 0 0 1 1586.5146 316.54)" class="st7 st8">Dusche (4)</text>
<rect x="720.5" y="721.5" class="st9" width="215" height="305"/>
<rect x="1089.5" y="782.5" class="st10" width="172" height="244"/>
<line class="st11" x1="721" y1="746.7" x2="935.1" y2="746.7"/>
<path class="st12" d="M839.9,995.5h-22.8c-28.5,0-51.6-23.1-51.6-51.6V842.1c0-28.5,23.1-51.6,51.6-51.6h22.8
	c28.5,0,51.6,23.1,51.6,51.6v101.8C891.5,972.4,868.4,995.5,839.9,995.5z"/>
<line class="st11" x1="721" y1="1008.7" x2="935.1" y2="1008.7"/>
<g>
	<rect x="1121.6" y="805.6" class="st0" width="110.8" height="75.8"/>
	<path d="M1231.8,806.2v74.6h-109.6v-74.6H1231.8 M1233,805h-112v77h112V805L1233,805z"/>
</g>
<g>
	<polygon class="st0" points="1135.8,877.3 1135.8,806.8 1217.2,808.7 1217.2,879.2 	"/>
	<path d="M1136.5,807.6l79.9,1.9v68.9l-79.9-1.9V807.6 M1135,806v72l83,2v-72L1135,806L1135,806z"/>
</g>
<g>
	<line class="st13" x1="1168.5" y1="843.5" x2="1198.5" y2="816.5"/>
</g>
<line class="st13" x1="1178.5" y1="844.5" x2="1198.5" y2="816.5"/>
<g>
	<g>
		<path d="M1129.5,827.8c1.9,0,1.9-3,0-3C1127.5,824.8,1127.5,827.8,1129.5,827.8L1129.5,827.8z"/>
	</g>
</g>
<g>
	<g>
		<path d="M1131.1,848.6c-0.6,0-1.1,0-1.7,0c-0.2,0-0.4,0-0.6,0.1c-0.2,0.1-0.3,0.2-0.5,0.3c-0.1,0.1-0.2,0.3-0.3,0.5
			c-0.1,0.2-0.1,0.4-0.1,0.6c0,0.4,0.1,0.8,0.4,1.1c0.3,0.3,0.7,0.4,1.1,0.4c0.6,0,1.1,0,1.7,0c0.2,0,0.4,0,0.6-0.1
			c0.2-0.1,0.3-0.2,0.5-0.3c0.1-0.1,0.2-0.3,0.3-0.5c0.1-0.2,0.1-0.4,0.1-0.6c0-0.4-0.1-0.8-0.4-1.1
			C1131.9,848.7,1131.6,848.6,1131.1,848.6L1131.1,848.6z"/>
	</g>
</g>
<g>
	<g>
		<path d="M1131.1,875.3c1.9,0,1.9-3,0-3C1129.2,872.3,1129.2,875.3,1131.1,875.3L1131.1,875.3z"/>
	</g>
</g>
<g>
	<g>
		<path d="M1222.6,871.9c1.9,0,1.9-3,0-3C1220.7,868.9,1220.7,871.9,1222.6,871.9L1222.6,871.9z"/>
	</g>
</g>
<g>
	<g>
		<path d="M1226,851.6c1.9,0,1.9-3,0-3C1224.1,848.6,1224.1,851.6,1226,851.6L1226,851.6z"/>
	</g>
</g>
<g>
	<g>
		<path d="M1226,824.5c1.9,0,1.9-3,0-3C1224.1,821.5,1224.1,824.5,1226,824.5L1226,824.5z"/>
	</g>
</g>
<g>
	<g>
		<path d="M1154,875.4c1.1-8.3,4.8-16.2,10.5-22.3c1.3-1.4-0.8-3.5-2.1-2.1c-6.2,6.8-10.1,15.3-11.3,24.5c-0.1,0.8,0.8,1.5,1.5,1.5
			C1153.4,876.9,1153.9,876.2,1154,875.4L1154,875.4z"/>
	</g>
</g>
<g>
	<g>
		<path d="M1166.5,877.6c2.9-6.2,5.7-12.4,8.6-18.6c0.3-0.7,0.2-1.6-0.5-2.1c-0.6-0.4-1.7-0.2-2.1,0.5c-2.9,6.2-5.7,12.4-8.6,18.6
			c-0.3,0.7-0.2,1.6,0.5,2.1C1165.1,878.5,1166.2,878.3,1166.5,877.6L1166.5,877.6z"/>
	</g>
</g>
<path class="st14" d="M820.4,410.4c5.7-4.9,28.5-23.5,62.8-23.4c30.7,0.2,51.7,15.3,58.1,20.3"/>
<path class="st15" d="M884.7,467.5H982c1.2-3.1,7.9-21-1.2-40.8c-9-19.6-26.9-26.3-30-27.4c-23.6-2.3-46.1,7.6-58.1,26.1
	C881.1,443.3,883.8,462.3,884.7,467.5z"/>
<g>
	<line class="st14" x1="886.5" y1="549.5" x2="886.5" y2="634.6"/>
	<line class="st14" x1="895.5" y1="582.5" x2="895.5" y2="618.8"/>
	<path class="st16" d="M912.2,549.5"/>
	<line class="st16" x1="912.2" y1="549.5" x2="926" y2="626"/>
	<line class="st16" x1="864.8" y1="582.5" x2="856.3" y2="626"/>
</g>
<g>
	<line class="st14" x1="886.5" y1="474.5" x2="886.5" y2="559.6"/>
	<line class="st14" x1="895.5" y1="507.5" x2="895.5" y2="543.8"/>
	<path class="st16" d="M912.2,474.5"/>
	<line class="st16" x1="912.2" y1="474.5" x2="926" y2="551"/>
	<line class="st16" x1="864.8" y1="507.5" x2="856.3" y2="551"/>
</g>
<g>
	<line class="st14" x1="945.1" y1="469.8" x2="970.3" y2="551.1"/>
	<line class="st14" x1="963.5" y1="498.6" x2="974.2" y2="533.3"/>
	<path class="st16" d="M969.7,462.2"/>
	<line class="st16" x1="969.7" y1="462.2" x2="1005.5" y2="531.2"/>
	<line class="st16" x1="934.1" y1="507.7" x2="938.9" y2="551.8"/>
</g>
<g>
	<line class="st14" x1="962.5" y1="544.5" x2="962.5" y2="629.6"/>
	<line class="st14" x1="971.5" y1="577.5" x2="971.5" y2="613.8"/>
	<path class="st16" d="M988.2,544.5"/>
	<line class="st16" x1="988.2" y1="544.5" x2="1002" y2="621"/>
	<line class="st16" x1="940.8" y1="577.5" x2="932.3" y2="621"/>
</g>
<g>
	<line class="st14" x1="914.5" y1="618.5" x2="914.5" y2="703.6"/>
	<line class="st14" x1="923.5" y1="651.5" x2="923.5" y2="687.8"/>
	<path class="st16" d="M940.2,618.5"/>
	<line class="st16" x1="940.2" y1="618.5" x2="954" y2="695"/>
	<line class="st16" x1="892.8" y1="651.5" x2="884.3" y2="695"/>
</g>
<polygon class="st17" points="805.8,413.4 805.8,826 831.2,826 831.2,405.8 "/>
<line x1="265.5" y1="483.6" x2="524.7" y2="496.7"/>
<polyline class="st18" points="1627,320 1016.2,348.4 978.8,392.3 "/>
<line class="st19" x1="1152.5" y1="380.8" x2="1163.4" y2="595.6"/>
<line class="st19" x1="1171.5" y1="380.8" x2="1182.4" y2="595.6"/>
<line class="st20" x1="1187.1" y1="375.8" x2="1200.8" y2="590.6"/>
<line class="st20" x1="1211.1" y1="375.8" x2="1224.8" y2="590.6"/>
<line class="st20" x1="1233.1" y1="375.8" x2="1246.8" y2="590.6"/>
<line class="st21" x1="1129.5" y1="403.1" x2="1261.5" y2="401.4"/>
<line class="st21" x1="1134.5" y1="573.1" x2="1266.5" y2="571.4"/>
</svg>
